<svg width="41" height="40" viewBox="0 0 41 40" fill="none" xmlns="http://www.w3.org/2000/svg">
<g clip-path="url(#clip0_884_3899)">
<path d="M37.6199 9.66016C38.1999 16.5902 34.4199 20.7502 31.3199 21.7302C24.2499 23.9702 20.6599 18.8702 15.1399 18.2102C5.73986 17.0802 -0.0601377 28.8102 7.98986 35.5402C16.2199 42.4102 28.0899 40.6302 33.9599 35.0302C39.4799 30.1802 43.7599 19.7002 37.6199 9.67016V9.66016Z" fill="#FFC14C"/>
<path d="M12.89 0.0700018C18.66 -0.0699982 24.46 -0.209998 29.26 2.2C32.26 3.52 36.02 6.68 37.61 9.67C38.16 16.23 34.8 20.31 31.81 21.56C31.77 21.58 31.73 21.59 31.69 21.61C31.56 21.66 31.44 21.7 31.31 21.74C30.29 22.06 29.35 22.23 28.46 22.29C28.32 22.29 28.18 22.3 28.04 22.31C27.51 22.32 27 22.29 26.5 22.23C31.01 17.23 27.14 12.23 22.48 12.23H10.23C9.85 12.23 9.46 12.1 9.19 11.81C8.94 11.54 8.79 11.16 8.79 10.79C8.79 10.41 8.94 10.04 9.19 9.77C9.46 9.5 9.81 9.33 10.19 9.31H21.9C22.13 9.31 22.34 9.23 22.48 9.08C22.63 8.91 22.71 8.73 22.71 8.5C22.71 8.27 22.63 8.06 22.48 7.92C22.31 7.77 22.1 7.69 21.9 7.69H13.19C12.79 7.67 12.44 7.5 12.19 7.23C11.94 6.96 11.79 6.58 11.79 6.21C11.79 5.84 11.92 5.46 12.19 5.19C12.46 4.92 12.82 4.75 13.19 4.73H17.84C18.07 4.73 18.28 4.65 18.42 4.5C18.57 4.33 18.65 4.15 18.65 3.92C18.65 3.69 18.57 3.48 18.42 3.34C18.25 3.19 18.05 3.11 17.84 3.11H8.86C8.65 3.13 8.44 3.09 8.26 3.03C8.07 2.97 7.89 2.86 7.74 2.72C7.59 2.6 7.49 2.43 7.39 2.22C7.31 2.03 7.27 1.82 7.27 1.64C7.27 1.46 7.31 1.24 7.39 1.06C7.47 0.870002 7.6 0.710002 7.74 0.560002C7.89 0.410002 8.07 0.310002 8.26 0.250002C8.45 0.190002 8.66 0.150002 8.86 0.170002C10.19 0.170002 11.54 0.140002 12.9 0.100002L12.89 0.0700018ZM5.38 9.29C6.2 9.29 6.86 9.95 6.86 10.77C6.86 11.59 6.2 12.25 5.38 12.25C4.56 12.25 3.9 11.59 3.9 10.77C3.9 9.95 4.56 9.29 5.38 9.29ZM1.48 0.130002C2.3 0.130002 2.96 0.790002 2.96 1.61C2.96 2.43 2.3 3.09 1.48 3.09C0.66 3.09 0 2.43 0 1.61C0 0.800002 0.66 0.130002 1.48 0.130002Z" fill="#294355"/>
</g>
<defs>
<clipPath id="clip0_884_3899">
<rect width="40.63" height="40" fill="white"/>
</clipPath>
</defs>
</svg>
